<?xml version="1.0" standalone="no"?>
<!DOCTYPE svg PUBLIC "-//W3C//DTD SVG 20010904//EN"
 "http://www.w3.org/TR/2001/REC-SVG-20010904/DTD/svg10.dtd">
<svg version="1.0" xmlns="http://www.w3.org/2000/svg"
 width="300.000000pt" height="300.000000pt" viewBox="0 0 300.000000 300.000000"
 preserveAspectRatio="xMidYMid meet">
<metadata>
Created by potrace 1.10, written by Peter Selinger 2001-2011
</metadata>
<g transform="translate(0.000000,300.000000) scale(0.100000,-0.100000)"
fill="#000000" stroke="none">
<path d="M1235 2974 c-111 -19 -262 -68 -374 -120 -302 -141 -574 -414 -715
-715 -85 -182 -141 -411 -134 -549 l3 -65 12 55 c6 30 21 105 33 165 32 169
54 235 133 405 120 259 381 521 652 655 163 80 280 116 495 151 58 9 114 20
125 25 34 13 -143 8 -230 -7z"/>
<path d="M1540 2980 c19 -5 78 -17 130 -25 295 -49 498 -132 701 -285 146
-109 256 -226 354 -375 124 -189 187 -363 231 -635 24 -148 36 -158 30 -25 -5
121 -28 232 -77 370 -193 549 -735 962 -1284 981 -88 3 -111 1 -85 -6z"/>
<path d="M1400 2384 c-113 -22 -217 -79 -288 -160 -53 -60 -126 -208 -143
-289 -19 -87 -16 -294 5 -380 39 -162 142 -314 253 -372 200 -106 490 -73 614
71 14 16 30 26 36 23 7 -4 9 -50 8 -124 -3 -140 -26 -213 -87 -279 -73 -79
-206 -122 -336 -110 -74 8 -130 28 -189 68 -46 31 -64 59 -94 146 -22 64 -41
81 -90 82 -25 0 -42 -7 -59 -25 -23 -25 -23 -27 -11 -88 36 -180 153 -288 350
-323 332 -59 577 69 658 343 15 51 17 132 21 698 l3 641 -21 27 c-18 22 -30
27 -65 27 -50 0 -75 -24 -75 -71 0 -15 -3 -35 -6 -44 -6 -14 -10 -13 -33 9
-39 37 -140 95 -196 112 -50 16 -208 26 -255 18z m225 -48 c124 -33 226 -113
272 -212 13 -29 26 -54 28 -54 3 0 2 59 -2 130 l-6 130 46 0 47 0 0 -638 c0
-699 0 -694 -61 -819 -50 -104 -160 -185 -287 -212 -68 -14 -236 -14 -304 0
-164 35 -280 144 -303 284 -3 22 -8 50 -11 63 -4 22 -2 23 43 20 l48 -3 7 -44
c30 -178 201 -275 438 -250 191 21 328 161 336 344 8 174 11 355 5 355 -3 0
-15 -20 -25 -43 -25 -52 -105 -139 -160 -171 -136 -79 -351 -79 -500 2 -93 51
-184 181 -222 320 -24 87 -29 291 -10 382 44 209 178 367 354 415 62 17 205
18 267 1z"/>
<path d="M1439 2269 c-213 -23 -360 -232 -361 -510 0 -123 15 -195 59 -289 85
-178 246 -264 432 -230 163 29 260 124 327 320 15 44 19 84 19 195 0 157 -17
225 -82 336 -76 131 -222 197 -394 178z m148 -44 c125 -29 210 -112 263 -253
28 -74 40 -246 24 -340 -21 -119 -85 -236 -164 -294 -146 -108 -379 -81 -484
56 -129 170 -150 430 -50 635 83 170 229 239 411 196z"/>
<path d="M10 1403 c0 -221 97 -510 247 -737 90 -136 273 -319 409 -409 220
-146 468 -232 694 -243 130 -6 117 7 -30 31 -137 22 -295 65 -401 110 -73 30
-220 109 -253 136 -199 157 -292 251 -388 396 -131 198 -193 361 -247 662 -12
63 -23 117 -26 119 -3 3 -5 -26 -5 -65z"/>
<path d="M2971 1420 c-6 -28 -16 -83 -22 -123 -24 -163 -77 -323 -156 -475
-201 -387 -591 -678 -1016 -757 -45 -8 -101 -20 -125 -25 -23 -6 -52 -10 -65
-10 -12 0 -29 -5 -37 -11 -25 -18 184 -3 280 20 276 65 509 192 712 389 212
206 351 452 419 742 19 81 38 300 26 300 -3 0 -10 -23 -16 -50z"/>
</g>
</svg>
