<?xml version="1.0" standalone="no"?>
<!DOCTYPE svg PUBLIC "-//W3C//DTD SVG 20010904//EN"
 "http://www.w3.org/TR/2001/REC-SVG-20010904/DTD/svg10.dtd">
<svg version="1.0" xmlns="http://www.w3.org/2000/svg"
 width="300.000000pt" height="300.000000pt" viewBox="0 0 300.000000 300.000000"
 preserveAspectRatio="xMidYMid meet">
<metadata>
Created by potrace 1.10, written by Peter Selinger 2001-2011
</metadata>
<g transform="translate(0.000000,300.000000) scale(0.100000,-0.100000)"
fill="#000000" stroke="none">
<path d="M1199 2794 c-174 -31 -323 -91 -471 -190 -185 -123 -353 -323 -438
-522 -195 -453 -104 -967 232 -1319 108 -113 216 -192 353 -259 146 -71 174
-76 215 -36 28 28 30 36 30 100 0 38 3 82 6 98 l6 29 -119 0 c-102 0 -125 3
-167 23 -85 39 -128 82 -181 182 -35 66 -64 105 -103 140 -37 33 -53 54 -49
64 9 23 82 20 133 -5 40 -19 63 -41 137 -133 58 -72 204 -114 304 -87 l41 11
5 63 c2 34 7 71 11 82 6 18 -2 22 -82 41 -355 86 -546 351 -489 683 17 105 63
210 120 276 30 36 33 43 22 59 -8 10 -19 48 -25 86 -13 79 -3 156 30 221 l22
41 51 -6 c103 -14 218 -69 281 -135 27 -28 29 -29 67 -16 111 40 372 44 506 9
l63 -16 47 41 c61 54 151 97 236 111 83 15 90 10 117 -77 24 -78 25 -139 5
-216 -8 -32 -15 -59 -15 -61 0 -2 14 -21 31 -42 99 -122 144 -351 104 -522
-50 -212 -230 -374 -484 -435 -72 -17 -90 -25 -85 -37 19 -46 24 -107 24 -313
l0 -229 29 -29 c37 -36 54 -36 149 1 351 141 619 450 719 829 35 130 43 372
18 506 -95 513 -486 901 -995 989 -113 19 -305 20 -411 0z m487 -58 c266 -66
505 -223 666 -440 77 -103 160 -275 195 -401 25 -92 27 -115 27 -295 1 -206
-8 -265 -65 -420 -108 -294 -361 -553 -653 -670 -78 -31 -106 -31 -119 3 -3 7
-6 125 -8 261 l-3 248 95 32 c250 84 408 245 455 466 36 172 1 359 -98 513
l-30 47 13 80 c21 130 -17 274 -81 307 -62 33 -227 -20 -343 -110 l-38 -29
-106 17 c-119 20 -314 17 -416 -6 -38 -9 -63 -10 -72 -4 -129 92 -185 118
-283 136 -67 13 -104 0 -131 -45 -44 -74 -56 -165 -36 -271 l16 -80 -45 -68
c-68 -101 -99 -206 -100 -342 -1 -128 12 -191 61 -289 76 -152 225 -267 428
-331 l70 -21 3 -41 c2 -33 -1 -44 -20 -57 -29 -20 -80 -20 -149 0 -54 16 -65
25 -174 144 -74 80 -184 112 -239 69 -41 -33 -34 -62 33 -132 32 -34 73 -91
91 -126 43 -87 109 -154 187 -193 55 -27 80 -33 161 -37 l97 -6 3 -62 c2 -51
-1 -66 -17 -82 -17 -17 -25 -18 -58 -9 -21 6 -76 30 -123 53 -340 172 -571
482 -636 856 -24 136 -15 350 20 482 54 211 148 376 301 532 182 186 397 298
655 340 127 21 337 13 466 -19z"/>
</g>
</svg>
