<svg version="1.0" xmlns="http://www.w3.org/2000/svg" width="300.000000ptpx" height="314.000000ptpx" viewBox="0 0 300.000000 314.000000" preserveAspectRatio="xMidYMid meet" transform="rotate(0) scale(1, 1)">
<metadata>
Created by potrace 1.10, written by Peter Selinger 2001-2011
</metadata>
<g transform="translate(0.000000,314.000000) scale(0.100000,-0.100000)" fill="#91BF91" stroke="none">
<path d="M1286 2964 c-619 -96 -1092 -582 -1175 -1209 -56 -413 93 -848 394&#10;-1151 232 -233 494 -360 843 -408 170 -24 382 -2 576 60 404 129 744 458 885&#10;858 152 430 88 905 -172 1273 -186 263 -479 468 -784 547 -174 45 -395 57&#10;-567 30z m-455 -336 c119 -35 194 -178 155 -295 -67 -202 -341 -228 -437 -41&#10;-48 93 -33 191 40 270 67 72 149 94 242 66z m1269 -609 c137 -21 251 -102 304&#10;-214 58 -122 61 -149 61 -650 l0 -460 -200 0 -200 0 -6 400 c-3 258 -10 412&#10;-17 434 -26 78 -65 115 -139 132 -109 25 -212 -24 -257 -121 -20 -43 -21 -64&#10;-24 -442 l-3 -398 -22 -5 c-12 -3 -103 -4 -202 -3 l-180 3 -3 653 -2 652 192&#10;-2 193 -3 5 -85 c5 -82 5 -84 21 -60 89 137 274 202 479 169z m-1142 -671 l-3&#10;-653 -180 -3 c-99 -1 -190 0 -202 3 l-23 5 0 644 c0 353 3 646 7 649 3 4 96 7&#10;205 7 l198 0 -2 -652z"/>
</g>
</svg>