<?xml version="1.0" standalone="no"?>
<!DOCTYPE svg PUBLIC "-//W3C//DTD SVG 20010904//EN"
 "http://www.w3.org/TR/2001/REC-SVG-20010904/DTD/svg10.dtd">
<svg version="1.0" xmlns="http://www.w3.org/2000/svg"
 width="300.000000pt" height="314.000000pt" viewBox="0 0 300.000000 314.000000"
 preserveAspectRatio="xMidYMid meet">
<metadata>
Created by potrace 1.10, written by Peter Selinger 2001-2011
</metadata>
<g transform="translate(0.000000,314.000000) scale(0.100000,-0.100000)"
fill="#000000" stroke="none">
<path d="M1315 2974 c-213 -31 -435 -116 -612 -235 -97 -66 -250 -213 -329
-318 -171 -225 -279 -547 -278 -831 0 -124 2 -145 31 -290 36 -184 132 -398
247 -551 79 -104 225 -246 328 -317 342 -235 771 -307 1168 -196 261 73 493
218 671 420 179 203 288 430 334 696 18 102 21 349 5 442 -51 303 -188 571
-397 779 -196 195 -424 319 -703 382 -73 17 -391 29 -465 19z m424 -44 c566
-114 961 -502 1101 -1080 32 -134 25 -452 -14 -595 -70 -256 -200 -481 -377
-651 -135 -130 -215 -185 -364 -254 -113 -53 -117 -54 -190 -75 -33 -9 -70
-21 -83 -26 -12 -5 -78 -16 -145 -25 -407 -54 -833 93 -1130 389 -197 197
-321 427 -384 712 -13 61 -17 123 -17 265 0 163 4 198 26 295 48 201 151 412
272 556 62 74 100 103 76 59 -15 -28 -16 -134 -2 -185 48 -172 299 -233 432
-105 56 54 80 110 80 190 0 164 -135 285 -296 265 -30 -3 -54 -2 -54 2 0 15
137 100 236 148 135 65 236 96 399 124 93 16 335 10 434 -9z m-917 -304 c63
-19 110 -57 142 -116 83 -153 -29 -340 -204 -340 -195 0 -304 220 -185 376 31
40 60 61 113 80 48 17 78 17 134 0z"/>
<path d="M1882 2043 c-71 -12 -141 -42 -201 -87 -43 -32 -51 -32 -51 -2 0 13
-9 34 -19 47 -19 24 -22 24 -210 24 -178 0 -191 -1 -205 -20 -13 -17 -15 -105
-16 -661 0 -613 1 -642 19 -658 16 -14 45 -17 211 -18 175 -1 193 1 210 18 17
18 19 47 25 389 7 413 12 454 69 511 70 70 199 71 263 2 46 -49 53 -113 53
-509 0 -346 1 -368 19 -390 19 -24 21 -24 215 -23 172 0 199 2 214 17 15 16
17 55 20 420 2 271 0 431 -8 492 -32 241 -131 382 -305 435 -63 19 -226 26
-303 13z m253 -35 c121 -26 223 -106 271 -215 52 -118 56 -154 61 -640 l5
-453 -206 0 -206 0 0 380 c0 232 -4 398 -11 429 -23 110 -96 165 -209 159
-124 -6 -188 -65 -215 -197 -13 -59 -15 -139 -13 -422 l3 -349 -202 0 -203 0
0 648 0 647 192 -2 193 -2 -2 -91 c-2 -94 6 -111 27 -60 18 43 94 107 167 142
93 44 219 54 348 26z"/>
<path d="M564 2020 c-12 -5 -25 -13 -29 -19 -3 -6 -9 -296 -12 -644 l-5 -632
22 -28 21 -27 199 0 c194 0 199 1 214 22 14 20 16 99 16 659 0 634 0 636 -21
655 -19 17 -40 19 -203 21 -99 1 -191 -2 -202 -7z m396 -672 l0 -648 -202 0
-203 0 2 647 c2 357 3 648 3 648 0 0 90 0 200 0 l200 0 0 -647z"/>
</g>
</svg>
