<?xml version="1.0" standalone="no"?>
<!DOCTYPE svg PUBLIC "-//W3C//DTD SVG 20010904//EN"
 "http://www.w3.org/TR/2001/REC-SVG-20010904/DTD/svg10.dtd">
<svg version="1.0" xmlns="http://www.w3.org/2000/svg"
 width="300.000000pt" height="169.000000pt" viewBox="0 0 300.000000 169.000000"
 preserveAspectRatio="xMidYMid meet">
<metadata>
Created by potrace 1.10, written by Peter Selinger 2001-2011
</metadata>
<g transform="translate(0.000000,169.000000) scale(0.100000,-0.100000)"
fill="#000000" stroke="none">
<path d="M1352 1650 c-85 -16 -222 -72 -298 -123 -385 -256 -484 -778 -219
-1152 285 -402 861 -462 1217 -127 177 167 260 358 260 597 -1 240 -83 430
-260 597 -89 84 -181 138 -302 179 -82 27 -111 32 -220 35 -69 2 -149 -1 -178
-6z m357 -50 c218 -61 388 -202 490 -407 53 -106 71 -178 78 -309 16 -303
-127 -565 -394 -722 -101 -60 -260 -102 -383 -102 -65 0 -196 21 -241 38 -95
37 -123 52 -194 98 -167 109 -273 263 -325 469 -19 75 -22 108 -18 209 4 103
10 135 37 216 18 52 53 129 78 170 45 73 194 230 219 230 6 0 17 6 23 14 29
35 198 99 306 116 84 12 240 3 324 -20z"/>
<path d="M1215 1254 c-183 -26 -242 -43 -276 -81 -43 -50 -41 -101 6 -142 38
-33 65 -38 125 -22 261 70 634 35 861 -80 77 -38 118 -38 158 2 31 30 35 42
33 88 -2 38 -26 65 -91 100 -163 87 -363 131 -611 136 -96 2 -188 1 -205 -1z
m442 -49 c120 -21 242 -59 339 -106 67 -32 84 -44 93 -70 8 -24 7 -37 -4 -59
-27 -52 -57 -52 -167 0 -219 105 -539 136 -816 78 l-103 -21 -27 20 c-39 29
-42 83 -7 111 80 63 452 88 692 47z"/>
<path d="M1190 969 c-98 -16 -179 -41 -198 -63 -31 -33 -35 -76 -13 -113 27
-43 70 -51 163 -27 55 14 109 19 223 19 180 -1 287 -23 434 -91 114 -53 149
-56 185 -13 53 62 23 123 -88 178 -86 42 -182 75 -281 96 -91 20 -338 28 -425
14z m300 -29 c52 -6 138 -22 190 -35 94 -25 249 -92 283 -122 36 -33 10 -103
-38 -103 -13 0 -59 18 -104 41 -184 92 -448 123 -668 80 -123 -25 -146 -21
-157 25 -12 45 14 69 92 88 135 34 255 41 402 26z"/>
<path d="M1319 716 c-2 -2 -38 -6 -79 -10 -191 -16 -271 -64 -234 -138 27 -53
56 -59 179 -36 198 36 394 13 556 -66 41 -20 81 -36 91 -36 30 0 78 49 78 80
0 78 -175 162 -405 195 -97 14 -177 19 -186 11z m305 -65 c117 -31 244 -95
252 -127 7 -25 -17 -64 -40 -64 -6 0 -42 16 -81 35 -159 80 -348 103 -573 70
-132 -20 -152 -16 -152 31 0 32 32 50 115 63 39 6 81 13 95 15 67 12 308 -3
384 -23z"/>
</g>
</svg>
