<svg version="1.0" xmlns="http://www.w3.org/2000/svg" width="300.000000ptpx" height="300.000000ptpx" viewBox="0 0 300.000000 300.000000" preserveAspectRatio="xMidYMid meet" transform="rotate(0) scale(1, 1)">
<metadata>
Created by potrace 1.10, written by Peter Selinger 2001-2011
</metadata>
<g transform="translate(0.000000,300.000000) scale(0.100000,-0.100000)" fill="#91BF91" stroke="none">
<path d="M1196 2794 c-409 -74 -760 -354 -915 -730 -220 -535 -36 -1149 443&#10;-1476 72 -49 253 -137 298 -144 70 -12 108 51 108 181 l0 70 -117 0 c-102 0&#10;-125 3 -167 23 -85 39 -128 82 -181 182 -35 66 -64 105 -103 140 -61 54 -64&#10;80 -11 80 83 0 143 -40 234 -155 56 -72 202 -113 301 -86 l41 11 6 68 c2 37 8&#10;74 11 82 5 13 -6 18 -56 29 -143 29 -308 118 -387 207 -96 110 -134 214 -134&#10;369 -1 161 32 267 118 379 l36 48 -17 51 c-27 80 -23 191 9 261 28 61 27 61&#10;113 45 78 -14 169 -58 228 -110 l47 -42 77 19 c106 26 366 26 465 0 l68 -18&#10;38 35 c76 68 182 114 275 119 47 3 49 2 68 -34 42 -79 46 -190 13 -303 -4 -14&#10;4 -33 25 -60 81 -102 127 -265 117 -420 -16 -267 -193 -461 -490 -537 -86 -22&#10;-88 -24 -82 -48 4 -14 10 -141 14 -283 l6 -259 29 -25 c37 -31 63 -28 176 21&#10;120 52 272 157 371 257 229 231 350 524 350 850 0 129 -3 158 -22 254 -86 417&#10;-404 773 -811 906 -178 58 -415 75 -592 43z"/>
</g>
</svg>