<svg version="1.0" xmlns="http://www.w3.org/2000/svg" width="300.000000ptpx" height="300.000000ptpx" viewBox="0 0 300.000000 300.000000" preserveAspectRatio="xMidYMid meet" transform="rotate(0) scale(1, 1)">
<metadata>
Created by potrace 1.10, written by Peter Selinger 2001-2011
</metadata>
<g transform="translate(0.000000,300.000000) scale(0.100000,-0.100000)" fill="#0a3d16" stroke="none">
<path d="M1345 2990 c-246 -28 -474 -112 -685 -251 -113 -75 -302 -259 -379&#10;-369 -369 -529 -369 -1211 0 -1740 75 -108 266 -293 378 -369 174 -115 346&#10;-186 563 -232 137 -29 397 -31 538 -4 313 59 571 195 795 420 294 293 438 641&#10;438 1055 0 414 -144 762 -438 1055 -180 181 -359 292 -595 369 -186 60 -431&#10;86 -615 66z m358 -682 c88 -42 161 -110 192 -179 l20 -44 5 120 5 120 43 3 42&#10;3 0 -638 c0 -691 -1 -707 -56 -814 -79 -157 -218 -229 -439 -229 -226 0 -369&#10;68 -431 204 -23 50 -46 161 -36 171 3 3 22 5 43 5 27 0 39 -5 42 -17 3 -10 10&#10;-38 17 -63 25 -97 106 -173 218 -205 89 -26 258 -17 334 17 80 37 149 105 184&#10;181 29 61 29 64 32 272 l3 210 -30 -51 c-91 -157 -275 -241 -467 -214 -207 28&#10;-327 132 -400 345 -35 104 -45 298 -20 415 32 152 129 302 237 367 82 49 147&#10;63 274 60 104 -2 114 -4 188 -39z"/>
<path d="M1363 2252 c-103 -37 -163 -94 -224 -214 -41 -82 -59 -167 -59 -288&#10;0 -166 44 -297 134 -397 108 -120 300 -153 461 -79 226 103 316 488 181 773&#10;-42 87 -102 150 -180 188 -78 38 -231 46 -313 17z"/>
</g>
</svg>