<svg version="1.0" xmlns="http://www.w3.org/2000/svg" width="300.000000ptpx" height="169.000000ptpx" viewBox="0 0 300.000000 169.000000" preserveAspectRatio="xMidYMid meet" transform="rotate(0) scale(1, 1)">
<metadata>
Created by potrace 1.10, written by Peter Selinger 2001-2011
</metadata>
<g transform="translate(0.000000,169.000000) scale(0.100000,-0.100000)" fill="#91bf91" stroke="none">
<path d="M1373 1645 c-183 -33 -322 -105 -448 -231 -420 -422 -251 -1137 315&#10;-1336 337 -119 742 20 934 320 98 154 130 265 130 447 0 148 -20 239 -80 360&#10;-154 312 -517 500 -851 440z m254 -431 c192 -29 410 -106 454 -162 25 -32 24&#10;-73 -1 -100 -34 -36 -61 -37 -131 -1 -211 106 -532 148 -784 103 -154 -28&#10;-188 -29 -210 -4 -24 27 -25 83 -1 109 17 19 99 43 206 60 95 15 351 12 467&#10;-5z m-62 -279 c177 -28 387 -114 413 -167 16 -34 1 -74 -33 -90 -22 -10 -37&#10;-6 -123 35 -217 103 -460 130 -692 76 -83 -19 -85 -19 -110 -1 -41 31 -40 88&#10;2 111 86 45 369 65 543 36z m45 -275 c84 -21 220 -78 252 -107 21 -18 24 -63&#10;6 -81 -20 -20 -51 -14 -139 27 -46 22 -118 48 -159 57 -98 23 -293 23 -413 0&#10;-94 -18 -120 -13 -132 24 -4 12 0 31 9 44 12 20 31 27 108 40 51 9 111 18 133&#10;20 78 8 254 -5 335 -24z"/>
</g>
</svg>